<svg width="32" height="32" viewBox="0 0 32 32" xmlns="http://www.w3.org/2000/svg">
  <path d="M 16,16 L 16,0 A 16,16 0 0,1 28.52,6.03 Z" fill="#ef4444" />
  <path d="M 16,16 L 28.52,6.03 A 16,16 0 0,1 31.6,19.56 Z" fill="#f97316" />
  <path d="M 16,16 L 31.6,19.56 A 16,16 0 0,1 22.94,30.41 Z" fill="#eab308" />
  <path d="M 16,16 L 22.94,30.41 A 16,16 0 0,1 9.06,30.41 Z" fill="#22c55e" />
  <path d="M 16,16 L 9.06,30.41 A 16,16 0 0,1 0.4,19.56 Z" fill="#3b82f6" />
  <path d="M 16,16 L 0.4,19.56 A 16,16 0 0,1 3.48,6.03 Z" fill="#6366f1" />
  <path d="M 16,16 L 3.48,6.03 A 16,16 0 0,1 16,0 Z" fill="#a855f7" />
</svg>
